<svg width="3566" height="780" viewBox="0 0 3566 780" fill="none" xmlns="http://www.w3.org/2000/svg">
<mask id="mask0_75_922" style="mask-type:luminance" maskUnits="userSpaceOnUse" x="211" y="279" width="230" height="337">
<path d="M211.798 279.377H440.796V615.282H211.798V279.377Z" fill="white"/>
</mask>
<g mask="url(#mask0_75_922)">
<mask id="mask1_75_922" style="mask-type:luminance" maskUnits="userSpaceOnUse" x="212" y="279" width="229" height="336">
<path d="M391.563 279.715L440.36 308.191L261.426 614.978L212.629 586.502L391.563 279.715Z" fill="white"/>
</mask>
<g mask="url(#mask1_75_922)">
<path d="M391.563 279.715L440.36 308.191L261.429 614.974L212.633 586.494L391.563 279.715Z" fill="url(#paint0_linear_75_922)"/>
</g>
</g>
<mask id="mask2_75_922" style="mask-type:luminance" maskUnits="userSpaceOnUse" x="35" y="303" width="204" height="330">
<path d="M35.7206 303.439H238.739V632.607H35.7206V303.439Z" fill="white"/>
</mask>
<g mask="url(#mask2_75_922)">
<mask id="mask3_75_922" style="mask-type:luminance" maskUnits="userSpaceOnUse" x="36" y="303" width="203" height="329">
<path d="M36.3521 322.41L70.8287 303.74L238.303 613.21L203.827 631.881L36.3521 322.41Z" fill="white"/>
</mask>
<g mask="url(#mask3_75_922)">
<path d="M36.3521 322.41L70.8287 303.74L238.288 613.18L203.812 631.847L36.3521 322.41Z" fill="url(#paint1_linear_75_922)"/>
</g>
</g>
<mask id="mask4_75_922" style="mask-type:luminance" maskUnits="userSpaceOnUse" x="416" y="278" width="260" height="342">
<path d="M416.742 278.415H675.566V619.132H416.742V278.415Z" fill="white"/>
</mask>
<g mask="url(#mask4_75_922)">
<mask id="mask5_75_922" style="mask-type:luminance" maskUnits="userSpaceOnUse" x="417" y="279" width="258" height="340">
<path d="M417.632 320.403L481.094 279.133L674.619 576.922L611.157 618.192L417.632 320.403Z" fill="white"/>
</mask>
<g mask="url(#mask5_75_922)">
<path d="M417.632 320.403L481.094 279.133L674.638 576.952L611.176 618.218L417.632 320.403Z" fill="url(#paint2_linear_75_922)"/>
</g>
</g>
<mask id="mask6_75_922" style="mask-type:luminance" maskUnits="userSpaceOnUse" x="616" y="264" width="236" height="369">
<path d="M616.874 264.94H851.644V632.607H616.874V264.94Z" fill="white"/>
</mask>
<g mask="url(#mask6_75_922)">
<mask id="mask7_75_922" style="mask-type:luminance" maskUnits="userSpaceOnUse" x="617" y="265" width="234" height="367">
<path d="M757.595 265.489L850.697 305.514L710.498 631.836L617.396 591.814L757.595 265.489Z" fill="white"/>
</mask>
<g mask="url(#mask7_75_922)">
<path d="M757.595 265.489L850.697 305.514L710.501 631.832L617.4 591.807L757.595 265.489Z" fill="url(#paint3_linear_75_922)"/>
</g>
</g>
<mask id="mask8_75_922" style="mask-type:luminance" maskUnits="userSpaceOnUse" x="723" y="66" width="243" height="243">
<path d="M723.731 66H966V308.345H723.731V66Z" fill="white"/>
</mask>
<g mask="url(#mask8_75_922)">
<mask id="mask9_75_922" style="mask-type:luminance" maskUnits="userSpaceOnUse" x="723" y="66" width="243" height="243">
<path d="M844.868 66C777.966 66 723.731 120.252 723.731 187.175C723.731 254.097 777.966 308.345 844.868 308.345C911.769 308.345 966 254.097 966 187.175C966 120.252 911.769 66 844.868 66Z" fill="white"/>
</mask>
<g mask="url(#mask9_75_922)">
<path d="M723.731 66H966V308.345H723.731V66Z" fill="url(#paint4_linear_75_922)"/>
</g>
</g>
<mask id="mask10_75_922" style="mask-type:luminance" maskUnits="userSpaceOnUse" x="572" y="535" width="180" height="179">
<path d="M572.914 535.445H751.413V714H572.914V535.445Z" fill="white"/>
</mask>
<g mask="url(#mask10_75_922)">
<mask id="mask11_75_922" style="mask-type:luminance" maskUnits="userSpaceOnUse" x="572" y="535" width="180" height="179">
<path d="M662.163 535.445C612.875 535.445 572.914 575.418 572.914 624.723C572.914 674.031 612.875 714 662.163 714C711.456 714 751.413 674.031 751.413 624.723C751.413 575.418 711.456 535.445 662.163 535.445Z" fill="white"/>
</mask>
<g mask="url(#mask11_75_922)">
<path d="M572.914 535.445H751.413V714H572.914V535.445Z" fill="url(#paint5_linear_75_922)"/>
</g>
</g>
<mask id="mask12_75_922" style="mask-type:luminance" maskUnits="userSpaceOnUse" x="155" y="562" width="127" height="128">
<path d="M155.673 562.786H281.977V689.13H155.673V562.786Z" fill="white"/>
</mask>
<g mask="url(#mask12_75_922)">
<mask id="mask13_75_922" style="mask-type:luminance" maskUnits="userSpaceOnUse" x="155" y="562" width="127" height="128">
<path d="M218.823 562.786C183.948 562.786 155.673 591.07 155.673 625.96C155.673 660.846 183.948 689.13 218.823 689.13C253.702 689.13 281.977 660.846 281.977 625.96C281.977 591.07 253.702 562.786 218.823 562.786Z" fill="white"/>
</mask>
<g mask="url(#mask13_75_922)">
<path d="M155.673 562.786H281.977V689.13H155.673V562.786Z" fill="url(#paint6_linear_75_922)"/>
</g>
</g>
<mask id="mask14_75_922" style="mask-type:luminance" maskUnits="userSpaceOnUse" x="342" y="181" width="172" height="172">
<path d="M342.432 181.276H513.459V352.36H342.432V181.276Z" fill="white"/>
</mask>
<g mask="url(#mask14_75_922)">
<mask id="mask15_75_922" style="mask-type:luminance" maskUnits="userSpaceOnUse" x="342" y="181" width="172" height="172">
<path d="M427.946 181.276C380.716 181.276 342.432 219.572 342.432 266.816C342.432 314.06 380.716 352.36 427.946 352.36C475.175 352.36 513.459 314.06 513.459 266.816C513.459 219.572 475.175 181.276 427.946 181.276Z" fill="white"/>
</mask>
<g mask="url(#mask15_75_922)">
<path d="M342.432 181.276H513.459V352.36H342.432V181.276Z" fill="url(#paint7_linear_75_922)"/>
</g>
</g>
<mask id="mask16_75_922" style="mask-type:luminance" maskUnits="userSpaceOnUse" x="0" y="255" width="105" height="106">
<path d="M0 255.875H104.911V360.819H0V255.875Z" fill="white"/>
</mask>
<g mask="url(#mask16_75_922)">
<mask id="mask17_75_922" style="mask-type:luminance" maskUnits="userSpaceOnUse" x="0" y="255" width="105" height="106">
<path d="M52.4573 255.875C23.4868 255.875 0 279.366 0 308.345C0 337.325 23.4868 360.819 52.4573 360.819C81.4277 360.819 104.911 337.325 104.911 308.345C104.911 279.366 81.4277 255.875 52.4573 255.875Z" fill="white"/>
</mask>
<g mask="url(#mask17_75_922)">
<path d="M0 255.875H104.911V360.819H0V255.875Z" fill="url(#paint8_linear_75_922)"/>
</g>
</g>
<path d="M1185.8 620C1141.4 620 1113.2 593.6 1101.2 540.8L1059.8 354.8C1059 350 1058.6 346.8 1058.6 345.2C1058.6 335.2 1062 327.6 1068.8 322.4C1076 316.8 1086 314 1098.8 314C1111.6 314 1122 316.8 1130 322.4C1138 328 1142.8 335.8 1144.4 345.8L1177.4 545C1178.6 553.4 1181.4 557.6 1185.8 557.6C1190.6 557.6 1193.6 553.6 1194.8 545.6L1217.6 380C1220.8 358.8 1228.6 342.6 1241 331.4C1253.4 319.8 1269.4 314 1289 314C1308.6 314 1324.6 319.8 1337 331.4C1349.4 342.6 1357.2 358.8 1360.4 380L1383.2 545.6C1384.4 553.6 1387.4 557.6 1392.2 557.6C1396.6 557.6 1399.4 553.4 1400.6 545L1433.6 345.8C1435.2 335.8 1440 328 1448 322.4C1456 316.8 1466.4 314 1479.2 314C1492 314 1501.8 316.8 1508.6 322.4C1515.8 327.6 1519.4 335.2 1519.4 345.2C1519.4 346.8 1519 350 1518.2 354.8L1476.8 540.8C1464.8 593.6 1436.6 620 1392.2 620C1370.2 620 1353.2 613.2 1341.2 599.6C1329.2 586 1321.2 564.8 1317.2 536L1297.4 388.4C1297 384 1296 381 1294.4 379.4C1293.2 377.4 1291.4 376.4 1289 376.4C1286.6 376.4 1284.6 377.4 1283 379.4C1281.8 381 1281 384 1280.6 388.4L1260.8 536C1256.8 564.8 1248.8 586 1236.8 599.6C1224.8 613.2 1207.8 620 1185.8 620ZM1711.21 620C1676.81 620 1646.81 613.8 1621.21 601.4C1595.61 589 1575.81 571.6 1561.81 549.2C1548.21 526.4 1541.41 499.8 1541.41 469.4C1541.41 420.2 1555.61 382 1584.01 354.8C1612.81 327.6 1653.21 314 1705.21 314C1737.21 314 1765.41 319 1789.81 329C1814.61 339 1833.81 353 1847.41 371C1861.41 388.6 1868.41 408.8 1868.41 431.6C1868.41 450.8 1862.21 465.6 1849.81 476C1837.81 486.4 1820.61 491.6 1798.21 491.6H1617.61C1617.61 514 1625.41 531 1641.01 542.6C1657.01 553.8 1680.41 559.4 1711.21 559.4C1743.61 559.4 1771.21 552.2 1794.01 537.8C1806.81 529.8 1816.81 525.8 1824.01 525.8C1830.81 525.8 1837.41 529 1843.81 535.4C1850.61 542.2 1854.01 549.6 1854.01 557.6C1854.01 567.2 1850.01 574.8 1842.01 580.4C1825.21 593.2 1805.61 603 1783.21 609.8C1760.81 616.6 1736.81 620 1711.21 620ZM1774.21 436.4C1781.01 436.4 1785.81 435.2 1788.61 432.8C1791.41 430 1792.81 425.6 1792.81 419.6C1792.81 405.6 1784.81 394.6 1768.81 386.6C1753.21 378.6 1732.01 374.6 1705.21 374.6C1678.41 374.6 1657.21 380.2 1641.61 391.4C1626.41 402.6 1618.81 417.6 1618.81 436.4H1774.21ZM1956.73 620C1944.33 620 1934.73 616.8 1927.93 610.4C1921.13 604 1917.73 595.2 1917.73 584V350C1917.73 338.4 1920.93 329.6 1927.33 323.6C1934.13 317.2 1943.53 314 1955.53 314C1967.53 314 1976.93 317.2 1983.73 323.6C1990.53 330 1993.93 338.8 1993.93 350V369.8C2006.33 353.8 2020.73 341.6 2037.13 333.2C2053.93 324.4 2071.93 320 2091.13 320H2104.33C2117.13 320 2126.93 322.8 2133.73 328.4C2140.93 333.6 2144.53 341.2 2144.53 351.2C2144.53 361.2 2140.93 369 2133.73 374.6C2126.93 379.8 2117.13 382.4 2104.33 382.4H2083.93C2057.13 382.4 2035.73 391 2019.73 408.2C2004.13 425 1996.33 448.2 1996.33 477.8V584C1996.33 595.2 1992.73 604 1985.53 610.4C1978.33 616.8 1968.73 620 1956.73 620ZM2327.83 620C2293.03 620 2262.03 613.8 2234.83 601.4C2208.03 588.6 2187.03 570.6 2171.83 547.4C2156.63 524.2 2149.03 497.4 2149.03 467C2149.03 436.6 2156.63 409.8 2171.83 386.6C2187.03 363.4 2208.03 345.6 2234.83 333.2C2262.03 320.4 2293.03 314 2327.83 314C2362.63 314 2393.43 320.4 2420.23 333.2C2447.43 345.6 2468.63 363.4 2483.83 386.6C2499.03 409.8 2506.63 436.6 2506.63 467C2506.63 497.4 2499.03 524.2 2483.83 547.4C2468.63 570.6 2447.43 588.6 2420.23 601.4C2393.43 613.8 2362.63 620 2327.83 620ZM2327.83 557.6C2358.63 557.6 2382.83 549.6 2400.43 533.6C2418.43 517.6 2427.43 495.4 2427.43 467C2427.43 438.6 2418.43 416.4 2400.43 400.4C2382.83 384.4 2358.63 376.4 2327.83 376.4C2297.03 376.4 2272.63 384.4 2254.63 400.4C2237.03 416.4 2228.23 438.6 2228.23 467C2228.23 495.4 2237.03 517.6 2254.63 533.6C2272.63 549.6 2297.03 557.6 2327.83 557.6ZM2683.61 620C2642.41 620 2610.21 608.2 2587.01 584.6C2564.21 560.6 2552.81 527.4 2552.81 485V350C2552.81 338.8 2556.41 330 2563.61 323.6C2570.81 317.2 2580.41 314 2592.41 314C2604.81 314 2614.41 317.2 2621.21 323.6C2628.01 330 2631.41 338.8 2631.41 350V485C2631.41 507.8 2637.41 525.6 2649.41 538.4C2661.81 551.2 2679.01 557.6 2701.01 557.6C2729.41 557.6 2751.41 548.6 2767.01 530.6C2783.01 512.6 2791.01 487.8 2791.01 456.2V350C2791.01 338.8 2794.61 330 2801.81 323.6C2809.01 317.2 2818.61 314 2830.61 314C2843.01 314 2852.61 317.2 2859.41 323.6C2866.21 330 2869.61 338.8 2869.61 350V584C2869.61 595.6 2866.21 604.6 2859.41 611C2853.01 617 2843.81 620 2831.81 620C2819.81 620 2810.41 616.8 2803.61 610.4C2796.81 604 2793.41 595.2 2793.41 584V566.6C2778.61 585 2762.21 598.6 2744.21 607.4C2726.61 615.8 2706.41 620 2683.61 620ZM3169.75 536.6C3176.15 541.8 3179.35 548.2 3179.35 555.8C3179.35 563.4 3176.55 571.2 3170.95 579.2C3162.15 592 3149.75 602 3133.75 609.2C3117.75 616.4 3099.75 620 3079.75 620C3047.75 620 3022.55 611.4 3004.15 594.2C2986.15 576.6 2977.15 552.6 2977.15 522.2V381.8H2952.55C2940.55 381.8 2930.95 379 2923.75 373.4C2916.55 367.8 2912.95 360.4 2912.95 351.2C2912.95 341.6 2916.35 334 2923.15 328.4C2930.35 322.8 2940.15 320 2952.55 320H2977.15V229.4C2977.15 218.2 2980.75 209.4 2987.95 203C2995.15 196.6 3004.75 193.4 3016.75 193.4C3029.15 193.4 3038.75 196.6 3045.55 203C3052.35 209.4 3055.75 218.2 3055.75 229.4V320H3113.35C3125.75 320 3135.35 322.8 3142.15 328.4C3149.35 334 3152.95 341.6 3152.95 351.2C3152.95 360.4 3149.35 367.8 3142.15 373.4C3135.35 379 3125.75 381.8 3113.35 381.8H3055.75V528.8C3055.75 537.6 3058.35 544.6 3063.55 549.8C3069.15 555 3076.55 557.6 3085.75 557.6C3092.95 557.6 3099.15 556.6 3104.35 554.6C3109.95 552.2 3115.55 548.4 3121.15 543.2C3131.55 533.2 3141.15 528.2 3149.95 528.2C3156.35 528.2 3162.95 531 3169.75 536.6ZM3386.41 620C3352.01 620 3322.01 613.8 3296.41 601.4C3270.81 589 3251.01 571.6 3237.01 549.2C3223.41 526.4 3216.61 499.8 3216.61 469.4C3216.61 420.2 3230.81 382 3259.21 354.8C3288.01 327.6 3328.41 314 3380.41 314C3412.41 314 3440.61 319 3465.01 329C3489.81 339 3509.01 353 3522.61 371C3536.61 388.6 3543.61 408.8 3543.61 431.6C3543.61 450.8 3537.41 465.6 3525.01 476C3513.01 486.4 3495.81 491.6 3473.41 491.6H3292.81C3292.81 514 3300.61 531 3316.21 542.6C3332.21 553.8 3355.61 559.4 3386.41 559.4C3418.81 559.4 3446.41 552.2 3469.21 537.8C3482.01 529.8 3492.01 525.8 3499.21 525.8C3506.01 525.8 3512.61 529 3519.01 535.4C3525.81 542.2 3529.21 549.6 3529.21 557.6C3529.21 567.2 3525.21 574.8 3517.21 580.4C3500.41 593.2 3480.81 603 3458.41 609.8C3436.01 616.6 3412.01 620 3386.41 620ZM3449.41 436.4C3456.21 436.4 3461.01 435.2 3463.81 432.8C3466.61 430 3468.01 425.6 3468.01 419.6C3468.01 405.6 3460.01 394.6 3444.01 386.6C3428.41 378.6 3407.21 374.6 3380.41 374.6C3353.61 374.6 3332.41 380.2 3316.81 391.4C3301.61 402.6 3294.01 417.6 3294.01 436.4H3449.41Z" fill="black"/>
<defs>
<linearGradient id="paint0_linear_75_922" x1="326.496" y1="279.715" x2="326.496" y2="614.974" gradientUnits="userSpaceOnUse">
<stop stop-color="#009375"/>
<stop offset="1" stop-color="#005B5B"/>
</linearGradient>
<linearGradient id="paint1_linear_75_922" x1="137.32" y1="303.74" x2="137.32" y2="631.847" gradientUnits="userSpaceOnUse">
<stop stop-color="#009375"/>
<stop offset="1" stop-color="#005B5B"/>
</linearGradient>
<linearGradient id="paint2_linear_75_922" x1="546.135" y1="279.133" x2="546.135" y2="618.218" gradientUnits="userSpaceOnUse">
<stop stop-color="#009375"/>
<stop offset="1" stop-color="#005B5B"/>
</linearGradient>
<linearGradient id="paint3_linear_75_922" x1="734.048" y1="265.489" x2="734.048" y2="631.832" gradientUnits="userSpaceOnUse">
<stop stop-color="#009375"/>
<stop offset="1" stop-color="#005B5B"/>
</linearGradient>
<linearGradient id="paint4_linear_75_922" x1="844.866" y1="66" x2="844.866" y2="308.345" gradientUnits="userSpaceOnUse">
<stop stop-color="#009375"/>
<stop offset="1" stop-color="#005B5B"/>
</linearGradient>
<linearGradient id="paint5_linear_75_922" x1="662.163" y1="535.445" x2="662.163" y2="714" gradientUnits="userSpaceOnUse">
<stop stop-color="#009375"/>
<stop offset="1" stop-color="#005B5B"/>
</linearGradient>
<linearGradient id="paint6_linear_75_922" x1="218.825" y1="562.786" x2="218.825" y2="689.13" gradientUnits="userSpaceOnUse">
<stop stop-color="#009375"/>
<stop offset="1" stop-color="#005B5B"/>
</linearGradient>
<linearGradient id="paint7_linear_75_922" x1="427.946" y1="181.276" x2="427.946" y2="352.36" gradientUnits="userSpaceOnUse">
<stop stop-color="#009375"/>
<stop offset="1" stop-color="#005B5B"/>
</linearGradient>
<linearGradient id="paint8_linear_75_922" x1="52.4554" y1="255.875" x2="52.4554" y2="360.819" gradientUnits="userSpaceOnUse">
<stop stop-color="#009375"/>
<stop offset="1" stop-color="#005B5B"/>
</linearGradient>
</defs>
</svg>
