<svg width="3540" height="780" viewBox="0 0 3540 780" fill="none" xmlns="http://www.w3.org/2000/svg">
<mask id="mask0_78_2" style="mask-type:luminance" maskUnits="userSpaceOnUse" x="211" y="279" width="230" height="337">
<path d="M211.798 279.377H440.796V615.282H211.798V279.377Z" fill="white"/>
</mask>
<g mask="url(#mask0_78_2)">
<mask id="mask1_78_2" style="mask-type:luminance" maskUnits="userSpaceOnUse" x="212" y="279" width="229" height="336">
<path d="M391.563 279.715L440.36 308.191L261.426 614.978L212.629 586.502L391.563 279.715Z" fill="white"/>
</mask>
<g mask="url(#mask1_78_2)">
<path d="M391.563 279.715L440.36 308.191L261.429 614.974L212.633 586.494L391.563 279.715Z" fill="url(#paint0_linear_78_2)"/>
</g>
</g>
<mask id="mask2_78_2" style="mask-type:luminance" maskUnits="userSpaceOnUse" x="35" y="303" width="204" height="330">
<path d="M35.7206 303.439H238.739V632.607H35.7206V303.439Z" fill="white"/>
</mask>
<g mask="url(#mask2_78_2)">
<mask id="mask3_78_2" style="mask-type:luminance" maskUnits="userSpaceOnUse" x="36" y="303" width="203" height="329">
<path d="M36.3521 322.41L70.8287 303.74L238.303 613.21L203.827 631.881L36.3521 322.41Z" fill="white"/>
</mask>
<g mask="url(#mask3_78_2)">
<path d="M36.3521 322.41L70.8287 303.74L238.288 613.18L203.812 631.847L36.3521 322.41Z" fill="url(#paint1_linear_78_2)"/>
</g>
</g>
<mask id="mask4_78_2" style="mask-type:luminance" maskUnits="userSpaceOnUse" x="416" y="278" width="260" height="342">
<path d="M416.742 278.415H675.566V619.132H416.742V278.415Z" fill="white"/>
</mask>
<g mask="url(#mask4_78_2)">
<mask id="mask5_78_2" style="mask-type:luminance" maskUnits="userSpaceOnUse" x="417" y="279" width="258" height="340">
<path d="M417.632 320.403L481.094 279.133L674.619 576.922L611.157 618.192L417.632 320.403Z" fill="white"/>
</mask>
<g mask="url(#mask5_78_2)">
<path d="M417.632 320.403L481.094 279.133L674.638 576.952L611.176 618.218L417.632 320.403Z" fill="url(#paint2_linear_78_2)"/>
</g>
</g>
<mask id="mask6_78_2" style="mask-type:luminance" maskUnits="userSpaceOnUse" x="616" y="264" width="236" height="369">
<path d="M616.874 264.94H851.644V632.607H616.874V264.94Z" fill="white"/>
</mask>
<g mask="url(#mask6_78_2)">
<mask id="mask7_78_2" style="mask-type:luminance" maskUnits="userSpaceOnUse" x="617" y="265" width="234" height="367">
<path d="M757.595 265.489L850.697 305.514L710.498 631.836L617.396 591.814L757.595 265.489Z" fill="white"/>
</mask>
<g mask="url(#mask7_78_2)">
<path d="M757.595 265.489L850.697 305.514L710.501 631.832L617.4 591.807L757.595 265.489Z" fill="url(#paint3_linear_78_2)"/>
</g>
</g>
<mask id="mask8_78_2" style="mask-type:luminance" maskUnits="userSpaceOnUse" x="723" y="66" width="243" height="243">
<path d="M723.731 66H966V308.345H723.731V66Z" fill="white"/>
</mask>
<g mask="url(#mask8_78_2)">
<mask id="mask9_78_2" style="mask-type:luminance" maskUnits="userSpaceOnUse" x="723" y="66" width="243" height="243">
<path d="M844.868 66C777.966 66 723.731 120.252 723.731 187.175C723.731 254.097 777.966 308.345 844.868 308.345C911.769 308.345 966 254.097 966 187.175C966 120.252 911.769 66 844.868 66Z" fill="white"/>
</mask>
<g mask="url(#mask9_78_2)">
<path d="M723.731 66H966V308.345H723.731V66Z" fill="url(#paint4_linear_78_2)"/>
</g>
</g>
<mask id="mask10_78_2" style="mask-type:luminance" maskUnits="userSpaceOnUse" x="572" y="535" width="180" height="179">
<path d="M572.914 535.445H751.413V714H572.914V535.445Z" fill="white"/>
</mask>
<g mask="url(#mask10_78_2)">
<mask id="mask11_78_2" style="mask-type:luminance" maskUnits="userSpaceOnUse" x="572" y="535" width="180" height="179">
<path d="M662.163 535.445C612.875 535.445 572.914 575.418 572.914 624.723C572.914 674.031 612.875 714 662.163 714C711.456 714 751.413 674.031 751.413 624.723C751.413 575.418 711.456 535.445 662.163 535.445Z" fill="white"/>
</mask>
<g mask="url(#mask11_78_2)">
<path d="M572.914 535.445H751.413V714H572.914V535.445Z" fill="url(#paint5_linear_78_2)"/>
</g>
</g>
<mask id="mask12_78_2" style="mask-type:luminance" maskUnits="userSpaceOnUse" x="155" y="562" width="127" height="128">
<path d="M155.673 562.786H281.977V689.13H155.673V562.786Z" fill="white"/>
</mask>
<g mask="url(#mask12_78_2)">
<mask id="mask13_78_2" style="mask-type:luminance" maskUnits="userSpaceOnUse" x="155" y="562" width="127" height="128">
<path d="M218.823 562.786C183.948 562.786 155.673 591.07 155.673 625.96C155.673 660.846 183.948 689.13 218.823 689.13C253.702 689.13 281.977 660.846 281.977 625.96C281.977 591.07 253.702 562.786 218.823 562.786Z" fill="white"/>
</mask>
<g mask="url(#mask13_78_2)">
<path d="M155.673 562.786H281.977V689.13H155.673V562.786Z" fill="url(#paint6_linear_78_2)"/>
</g>
</g>
<mask id="mask14_78_2" style="mask-type:luminance" maskUnits="userSpaceOnUse" x="342" y="181" width="172" height="172">
<path d="M342.432 181.276H513.459V352.36H342.432V181.276Z" fill="white"/>
</mask>
<g mask="url(#mask14_78_2)">
<mask id="mask15_78_2" style="mask-type:luminance" maskUnits="userSpaceOnUse" x="342" y="181" width="172" height="172">
<path d="M427.946 181.276C380.716 181.276 342.432 219.572 342.432 266.816C342.432 314.06 380.716 352.36 427.946 352.36C475.175 352.36 513.459 314.06 513.459 266.816C513.459 219.572 475.175 181.276 427.946 181.276Z" fill="white"/>
</mask>
<g mask="url(#mask15_78_2)">
<path d="M342.432 181.276H513.459V352.36H342.432V181.276Z" fill="url(#paint7_linear_78_2)"/>
</g>
</g>
<mask id="mask16_78_2" style="mask-type:luminance" maskUnits="userSpaceOnUse" x="0" y="255" width="105" height="106">
<path d="M0 255.875H104.911V360.819H0V255.875Z" fill="white"/>
</mask>
<g mask="url(#mask16_78_2)">
<mask id="mask17_78_2" style="mask-type:luminance" maskUnits="userSpaceOnUse" x="0" y="255" width="105" height="106">
<path d="M52.4573 255.875C23.4868 255.875 0 279.366 0 308.345C0 337.325 23.4868 360.819 52.4573 360.819C81.4277 360.819 104.911 337.325 104.911 308.345C104.911 279.366 81.4277 255.875 52.4573 255.875Z" fill="white"/>
</mask>
<g mask="url(#mask17_78_2)">
<path d="M0 255.875H104.911V360.819H0V255.875Z" fill="url(#paint8_linear_78_2)"/>
</g>
</g>
<path d="M1238.51 338.87C1250.12 338.87 1256.57 343.6 1261.3 352.63L1337.41 494.96L1409.65 351.77C1413.52 344.46 1419.11 338.87 1431.58 338.87C1445.34 338.87 1454.37 345.75 1454.37 356.5C1454.37 360.37 1453.51 362.95 1451.36 367.25L1360.63 537.96C1355.47 547.42 1349.88 552.15 1337.84 552.15C1327.09 552.15 1320.64 548.28 1315.48 538.39L1238.51 397.78L1161.97 538.39C1156.38 548.28 1150.36 552.15 1139.61 552.15C1127.14 552.15 1121.55 547.42 1116.82 537.96L1025.66 367.25C1023.51 362.95 1023.08 360.37 1023.08 356.5C1023.08 345.75 1032.11 338.87 1045.87 338.87C1057.91 338.87 1064.36 344.03 1068.23 351.77L1139.61 494.53L1215.72 352.63C1220.45 343.6 1226.9 338.87 1238.51 338.87ZM1806.66 459.7H1561.99V485.93C1561.99 506.14 1581.77 516.46 1621.76 516.46H1685.4C1699.59 516.46 1706.9 522.05 1706.9 533.23C1706.9 544.41 1699.59 550 1685.4 550H1621.76C1552.1 550 1516.84 528.93 1516.84 486.36V402.08C1516.84 361.66 1548.23 341.02 1610.58 341.02H1734.85C1795.91 341.02 1826.44 359.51 1826.44 396.06V444.22C1826.44 454.54 1819.56 459.7 1806.66 459.7ZM1561.99 404.66V430.03H1777.85C1780.43 430.03 1781.29 428.74 1781.29 427.02V404.66C1781.29 384.88 1764.95 374.99 1731.41 374.99H1613.16C1578.76 374.99 1561.99 384.88 1561.99 404.66ZM1897.32 534.09V409.39C1897.32 363.81 1934.3 341.02 2008.26 341.02H2041.37C2055.99 341.02 2063.3 347.04 2063.3 358.65C2063.3 370.26 2055.99 376.28 2041.37 376.28H2006.54C1964.4 376.28 1942.9 387.03 1942.9 408.53V534.09C1942.9 546.13 1935.16 552.15 1920.11 552.15C1905.06 552.15 1897.32 545.7 1897.32 534.09ZM2317.99 550H2235C2160.61 550 2123.63 527.21 2123.63 482.06V409.39C2123.63 363.81 2160.61 341.02 2235 341.02H2317.99C2392.38 341.02 2429.36 363.81 2429.36 409.39V482.06C2429.36 527.21 2392.38 550 2317.99 550ZM2383.35 482.49V408.96C2383.35 387.03 2361.85 376.28 2319.28 376.28H2233.28C2191.14 376.28 2169.64 387.03 2169.64 408.96V482.49C2169.64 503.99 2191.14 515.17 2233.28 515.17H2319.28C2361.85 515.17 2383.35 503.99 2383.35 482.49ZM2698.36 550H2619.67C2545.71 550 2508.73 527.21 2508.73 482.06V356.93C2508.73 345.32 2516.04 338.87 2531.52 338.87C2546.57 338.87 2554.31 345.32 2554.31 356.93V482.49C2554.31 503.99 2575.81 515.17 2617.95 515.17H2699.65C2742.22 515.17 2763.29 503.99 2763.29 482.49V356.93C2763.29 345.32 2771.03 338.87 2786.08 338.87C2801.56 338.87 2809.3 345.32 2809.3 356.93V482.06C2809.3 527.21 2771.89 550 2698.36 550ZM3034.07 376.28H2960.11V534.09C2960.11 546.13 2952.37 552.15 2937.75 552.15C2922.27 552.15 2914.53 546.13 2914.53 534.09V376.28H2896.9C2883.14 376.28 2875.83 370.69 2875.83 359.51C2875.83 348.33 2883.14 342.74 2896.9 342.74H2914.53V303.18C2914.53 291.57 2921.84 285.12 2936.89 285.12C2952.37 285.12 2960.11 291.57 2960.11 303.18V342.74H3034.07C3048.26 342.74 3055.57 348.33 3055.57 359.51C3055.57 370.69 3048.26 376.28 3034.07 376.28ZM3405.3 459.7H3160.63V485.93C3160.63 506.14 3180.41 516.46 3220.4 516.46H3284.04C3298.23 516.46 3305.54 522.05 3305.54 533.23C3305.54 544.41 3298.23 550 3284.04 550H3220.4C3150.74 550 3115.48 528.93 3115.48 486.36V402.08C3115.48 361.66 3146.87 341.02 3209.22 341.02H3333.49C3394.55 341.02 3425.08 359.51 3425.08 396.06V444.22C3425.08 454.54 3418.2 459.7 3405.3 459.7ZM3160.63 404.66V430.03H3376.49C3379.07 430.03 3379.93 428.74 3379.93 427.02V404.66C3379.93 384.88 3363.59 374.99 3330.05 374.99H3211.8C3177.4 374.99 3160.63 384.88 3160.63 404.66ZM3502.12 531.08C3502.12 545.27 3493.52 552.15 3476.32 552.15C3459.55 552.15 3450.95 545.27 3450.95 531.08C3450.95 516.89 3459.55 510.01 3476.75 510.01C3493.52 510.01 3502.12 516.89 3502.12 531.08Z" fill="black"/>
<defs>
<linearGradient id="paint0_linear_78_2" x1="326.496" y1="279.715" x2="326.496" y2="614.974" gradientUnits="userSpaceOnUse">
<stop stop-color="#009375"/>
<stop offset="1" stop-color="#005B5B"/>
</linearGradient>
<linearGradient id="paint1_linear_78_2" x1="137.32" y1="303.74" x2="137.32" y2="631.847" gradientUnits="userSpaceOnUse">
<stop stop-color="#009375"/>
<stop offset="1" stop-color="#005B5B"/>
</linearGradient>
<linearGradient id="paint2_linear_78_2" x1="546.135" y1="279.133" x2="546.135" y2="618.218" gradientUnits="userSpaceOnUse">
<stop stop-color="#009375"/>
<stop offset="1" stop-color="#005B5B"/>
</linearGradient>
<linearGradient id="paint3_linear_78_2" x1="734.048" y1="265.489" x2="734.048" y2="631.832" gradientUnits="userSpaceOnUse">
<stop stop-color="#009375"/>
<stop offset="1" stop-color="#005B5B"/>
</linearGradient>
<linearGradient id="paint4_linear_78_2" x1="844.866" y1="66" x2="844.866" y2="308.345" gradientUnits="userSpaceOnUse">
<stop stop-color="#009375"/>
<stop offset="1" stop-color="#005B5B"/>
</linearGradient>
<linearGradient id="paint5_linear_78_2" x1="662.163" y1="535.445" x2="662.163" y2="714" gradientUnits="userSpaceOnUse">
<stop stop-color="#009375"/>
<stop offset="1" stop-color="#005B5B"/>
</linearGradient>
<linearGradient id="paint6_linear_78_2" x1="218.825" y1="562.786" x2="218.825" y2="689.13" gradientUnits="userSpaceOnUse">
<stop stop-color="#009375"/>
<stop offset="1" stop-color="#005B5B"/>
</linearGradient>
<linearGradient id="paint7_linear_78_2" x1="427.946" y1="181.276" x2="427.946" y2="352.36" gradientUnits="userSpaceOnUse">
<stop stop-color="#009375"/>
<stop offset="1" stop-color="#005B5B"/>
</linearGradient>
<linearGradient id="paint8_linear_78_2" x1="52.4554" y1="255.875" x2="52.4554" y2="360.819" gradientUnits="userSpaceOnUse">
<stop stop-color="#009375"/>
<stop offset="1" stop-color="#005B5B"/>
</linearGradient>
</defs>
</svg>
